<svg xmlns="http://www.w3.org/2000/svg" width="19.449" height="19.407" viewBox="0 0 19.449 19.407">
  <g id="Group_43741" data-name="Group 43741" transform="translate(-269.577 -1815.593)">
    <g id="Group_37724" data-name="Group 37724" transform="translate(269.577 1815.593)">
      <path id="Path_78007" data-name="Path 78007" d="M696.139,110.792a4.163,4.163,0,0,1,.2-.487,13.748,13.748,0,0,1,2.005-2.71,17.588,17.588,0,0,1,1.455-1.37,1.135,1.135,0,0,1,1.745.254,23.1,23.1,0,0,1,2.4,3.929,5.431,5.431,0,0,1,.238.664.965.965,0,0,1-.2.967c-.231.262-.5.494-.752.733a6.962,6.962,0,0,1-.539.459.252.252,0,0,0-.1.341,8.872,8.872,0,0,0,3.275,4.265,8.748,8.748,0,0,0,2.095,1.084.22.22,0,0,0,.291-.079q.337-.417.7-.814a5.068,5.068,0,0,1,.52-.508,1,1,0,0,1,.951-.2,7.866,7.866,0,0,1,2.006.944c.833.51,1.646,1.054,2.465,1.588a1.534,1.534,0,0,1,.626.8.841.841,0,0,1-.07.793,6.74,6.74,0,0,1-.591.792,17.575,17.575,0,0,1-3.428,2.821,1.92,1.92,0,0,1-1.528.2,13.939,13.939,0,0,1-4.895-2.1,22.23,22.23,0,0,1-7.294-7.723,12.593,12.593,0,0,1-1.457-3.838C696.211,111.351,696.184,111.1,696.139,110.792Z" transform="translate(-696.139 -105.917)" fill="#deae4f"/>
      <path id="Path_78008" data-name="Path 78008" d="M885.193,126.087a2,2,0,0,1,0,.343.646.646,0,0,1-1.28-.132,6.758,6.758,0,0,0-.412-2.358,7.015,7.015,0,0,0-5.448-4.635,8.79,8.79,0,0,0-1.225-.12.666.666,0,0,1-.69-.665.653.653,0,0,1,.715-.634,8.43,8.43,0,0,1,8.234,7.034c.062.385.093.775.138,1.163Z" transform="translate(-866.396 -117.24)" fill="#deae4f"/>
      <path id="Path_78009" data-name="Path 78009" d="M881.97,182.824a.658.658,0,1,1-1.3.072,3.833,3.833,0,0,0-1.9-3.279,3.707,3.707,0,0,0-1.92-.548.652.652,0,1,1,.023-1.3,5.188,5.188,0,0,1,5.063,4.627C881.945,182.542,881.957,182.683,881.97,182.824Z" transform="translate(-866.397 -173.887)" fill="#deae4f"/>
    </g>
  </g>
</svg>
