<svg xmlns="http://www.w3.org/2000/svg" width="17.821" height="17.821" viewBox="0 0 17.821 17.821">
  <g id="Group_44063" data-name="Group 44063" transform="translate(-3.375 -3.375)">
    <path id="Path_104124" data-name="Path 104124" d="M14.658,10.224a.83.83,0,0,1,1.17,0l4.087,4.1a.826.826,0,0,1,.026,1.14L15.913,19.5a.825.825,0,1,1-1.17-1.165l3.423-3.474-3.509-3.474A.817.817,0,0,1,14.658,10.224Z" transform="translate(-4.313 -2.582)" fill="#deae4f"/>
    <path id="Path_104125" data-name="Path 104125" d="M3.375,12.286a8.911,8.911,0,1,0,8.911-8.911A8.909,8.909,0,0,0,3.375,12.286Zm1.371,0A7.537,7.537,0,0,1,17.615,6.956,7.537,7.537,0,1,1,6.956,17.615,7.475,7.475,0,0,1,4.746,12.286Z" fill="#deae4f"/>
  </g>
</svg>
