<svg id="Group_44024" data-name="Group 44024" xmlns="http://www.w3.org/2000/svg" xmlns:xlink="http://www.w3.org/1999/xlink" width="27.299" height="18.799" viewBox="0 0 27.299 18.799">
  <defs>
    <clipPath id="clip-path">
      <rect id="Rectangle_22740" data-name="Rectangle 22740" width="27.299" height="18.799" fill="#deae4f"/>
    </clipPath>
  </defs>
  <g id="Group_44023" data-name="Group 44023" clip-path="url(#clip-path)">
    <path id="Path_104120" data-name="Path 104120" d="M0,17.179V13.322a1.37,1.37,0,0,1,.9-1.305,1.08,1.08,0,0,1,.187-.047A2.645,2.645,0,0,0,3.41,9.457a2.588,2.588,0,0,0-2.281-2.6c-.037-.006-.075-.014-.111-.024A1.382,1.382,0,0,1,0,5.485V1.612A1.354,1.354,0,0,1,.36.675,2.589,2.589,0,0,1,2.379,0Q13.685.043,24.991,0a2.479,2.479,0,0,1,1.961.68A1.354,1.354,0,0,1,27.3,1.6V17.177a1.369,1.369,0,0,1-.279.839A2.215,2.215,0,0,1,25.1,18.8q-11.454-.042-22.909,0a2.214,2.214,0,0,1-1.917-.783A1.37,1.37,0,0,1,0,17.179M3.1,1.758a1.4,1.4,0,0,0-1.4,1.4c0,.558,0,1.106.023,1.654a.714.714,0,0,0,.388.5,4.31,4.31,0,0,1,3,4.123,4.267,4.267,0,0,1-3,4.043c-.149.059-.372.2-.374.314-.016.611-.019,1.223-.019,1.834a1.4,1.4,0,0,0,1.4,1.4H24.156a1.4,1.4,0,0,0,1.4-1.4V3.157a1.4,1.4,0,0,0-1.4-1.4Z" transform="translate(0 -0.001)" fill="#deae4f"/>
    <path id="Path_104121" data-name="Path 104121" d="M88.613,37.036c-.8-.014-1.2-.664-.934-1.23A2.213,2.213,0,0,1,88,35.371q3.988-4.792,7.979-9.582c.087-.1.175-.209.265-.311a.854.854,0,1,1,1.3,1.1q-1.738,2.1-3.485,4.191c-1.585,1.9-3.165,3.808-4.762,5.7a4.285,4.285,0,0,1-.682.569" transform="translate(-75.64 -21.664)" fill="#deae4f"/>
    <path id="Path_104122" data-name="Path 104122" d="M127.553,80.283a2.555,2.555,0,1,1,2.567-2.544,2.568,2.568,0,0,1-2.567,2.544m.865-2.519a.863.863,0,0,0-.908-.883.839.839,0,0,0,.119,1.673.815.815,0,0,0,.789-.791" transform="translate(-107.947 -64.912)" fill="#deae4f"/>
    <path id="Path_104123" data-name="Path 104123" d="M92.676,27.747a2.554,2.554,0,1,1-5.108-.031,2.554,2.554,0,0,1,5.108.031m-2.511.82a.794.794,0,0,0,.786-.82.82.82,0,0,0-.851-.86.809.809,0,0,0-.826.821.84.84,0,0,0,.891.858" transform="translate(-75.616 -21.744)" fill="#deae4f"/>
    <rect id="Rectangle_22736" data-name="Rectangle 22736" width="1.646" height="1.6" transform="translate(6.844 3.478)" fill="#deae4f"/>
    <rect id="Rectangle_22737" data-name="Rectangle 22737" width="1.628" height="1.62" transform="translate(6.86 6.878)" fill="#deae4f"/>
    <rect id="Rectangle_22738" data-name="Rectangle 22738" width="1.617" height="1.623" transform="translate(6.878 10.296)" fill="#deae4f"/>
    <rect id="Rectangle_22739" data-name="Rectangle 22739" width="1.626" height="1.623" transform="translate(6.863 13.721)" fill="#deae4f"/>
  </g>
</svg>
