<svg width="14" height="14" viewBox="0 0 14 14" fill="none" xmlns="http://www.w3.org/2000/svg">
<path d="M13 11.8147V7.17681C13 6.85413 12.9334 6.53485 12.8041 6.23851C12.6748 5.94218 12.4857 5.67503 12.2482 5.45344L7.8244 1.32398C7.6016 1.11593 7.30661 1 7 1C6.69339 1 6.3984 1.11593 6.1756 1.32398L1.7518 5.45344C1.51433 5.67503 1.32517 5.94218 1.1959 6.23851C1.06663 6.53485 0.999965 6.85413 1 7.17681V11.8147C1 12.1291 1.12643 12.4306 1.35147 12.6528C1.57652 12.8751 1.88174 13 2.2 13H11.8C12.1183 13 12.4235 12.8751 12.6485 12.6528C12.8736 12.4306 13 12.1291 13 11.8147Z" stroke="#87888C" stroke-width="1.2" stroke-linecap="round" stroke-linejoin="round"/>
</svg>
