<svg width="14" height="14" viewBox="0 0 14 14" fill="none" xmlns="http://www.w3.org/2000/svg">
<path fill-rule="evenodd" clip-rule="evenodd" d="M1 0.999969H1.75V12.25H13V13H1V0.999969ZM12.1128 3.33472C12.1509 3.36593 12.1825 3.40434 12.2058 3.44778C12.2291 3.49121 12.2436 3.5388 12.2484 3.58784C12.2533 3.63687 12.2485 3.68639 12.2342 3.73356C12.2199 3.78072 12.1965 3.82461 12.1653 3.86272L8.79025 7.98772C8.75708 8.02821 8.7158 8.06131 8.66906 8.08488C8.62233 8.10845 8.57118 8.12198 8.5189 8.1246C8.46662 8.12721 8.41438 8.11885 8.36553 8.10006C8.31667 8.08126 8.2723 8.05245 8.23525 8.01547L6.295 6.07522L3.553 9.84547C3.49302 9.92174 3.4058 9.9718 3.30969 9.98511C3.21357 9.99842 3.11604 9.97396 3.03758 9.91687C2.95912 9.85977 2.90585 9.77449 2.88896 9.67894C2.87207 9.58338 2.89287 9.485 2.947 9.40447L5.947 5.27947C5.97884 5.23561 6.01982 5.19917 6.0671 5.17266C6.11438 5.14616 6.16684 5.13021 6.22088 5.12594C6.27491 5.12166 6.32923 5.12915 6.3801 5.14788C6.43096 5.16662 6.47715 5.19616 6.5155 5.23447L8.47225 7.19197L11.5848 3.38722C11.616 3.34908 11.6544 3.31747 11.6978 3.29419C11.7412 3.27091 11.7888 3.25641 11.8379 3.25154C11.8869 3.24666 11.9364 3.2515 11.9836 3.26577C12.0308 3.28004 12.0746 3.30347 12.1128 3.33472Z" fill="#C8D4E0" stroke="#C8D4E0" stroke-width="0.5"/>
</svg>
