<svg width="17" height="17" viewBox="0 0 17 17" fill="none" xmlns="http://www.w3.org/2000/svg">
<path fill-rule="evenodd" clip-rule="evenodd" d="M0.357178 1.21429H1.37503V14.875H16.6429V15.7857H0.357178V1.21429ZM15.4388 4.04935C15.4905 4.08724 15.5334 4.13389 15.565 4.18663C15.5966 4.23937 15.6163 4.29716 15.6229 4.35671C15.6295 4.41625 15.623 4.47638 15.6036 4.53365C15.5842 4.59092 15.5524 4.64422 15.51 4.69049L10.9297 9.69942C10.8846 9.74858 10.8286 9.78877 10.7652 9.8174C10.7018 9.84602 10.6323 9.86245 10.5614 9.86563C10.4905 9.8688 10.4195 9.85865 10.3532 9.83583C10.2869 9.81301 10.2267 9.77802 10.1764 9.73312L7.54325 7.3771L3.82196 11.9553C3.74056 12.0479 3.6222 12.1087 3.49175 12.1248C3.36131 12.141 3.22894 12.1113 3.12246 12.042C3.01599 11.9726 2.94369 11.8691 2.92076 11.753C2.89784 11.637 2.92607 11.5175 2.99954 11.4198L7.07096 6.41083C7.11418 6.35757 7.16979 6.31332 7.23395 6.28113C7.29812 6.24895 7.36932 6.22959 7.44266 6.2244C7.51599 6.2192 7.58971 6.2283 7.65874 6.25105C7.72776 6.2738 7.79046 6.30967 7.8425 6.35619L10.4981 8.73315L14.7222 4.1131C14.7645 4.06679 14.8167 4.0284 14.8756 4.00013C14.9346 3.97186 14.9992 3.95426 15.0657 3.94834C15.1323 3.94242 15.1995 3.94829 15.2635 3.96563C15.3275 3.98296 15.3871 4.01141 15.4388 4.04935Z" fill="#EA79BA" stroke="#EA79BA" stroke-width="0.5"/>
</svg>
