<svg width="13" height="11" viewBox="0 0 13 11" fill="none" xmlns="http://www.w3.org/2000/svg">
<g clip-path="url(#clip0_202_448)">
<path d="M12.942 5.24494C12.8674 5.08647 11.0598 1.375 6.49985 1.375C1.93989 1.375 0.132285 5.08647 0.0577383 5.24494C-0.0192461 5.40873 -0.0192461 5.59144 0.0577383 5.75523C0.132285 5.91353 1.93989 9.625 6.49985 9.625C11.0598 9.625 12.8674 5.91353 12.942 5.75506C13.0189 5.59127 13.0189 5.40873 12.942 5.24494ZM6.49985 6.875C5.60244 6.875 4.87485 6.25934 4.87485 5.5C4.87485 4.74066 5.60244 4.125 6.49985 4.125C7.39725 4.125 8.12485 4.74066 8.12485 5.5C8.12485 6.25934 7.39725 6.875 6.49985 6.875Z" fill="#C8D4E0"/>
</g>
<defs>
<clipPath id="clip0_202_448">
<rect width="13" height="11" fill="white"/>
</clipPath>
</defs>
</svg>
