<svg width="18" height="15" viewBox="0 0 18 15" fill="none" xmlns="http://www.w3.org/2000/svg">
<path d="M8.66667 0C9.81594 0 10.9181 0.386308 11.7308 1.07394C12.5435 1.76157 13 2.69421 13 3.66667C13 4.63913 12.5435 5.57176 11.7308 6.25939C10.9181 6.94703 9.81594 7.33333 8.66667 7.33333C7.5174 7.33333 6.41519 6.94703 5.60254 6.25939C4.78988 5.57176 4.33333 4.63913 4.33333 3.66667C4.33333 2.69421 4.78988 1.76157 5.60254 1.07394C6.41519 0.386308 7.5174 0 8.66667 0ZM8.66667 9.16667C13.455 9.16667 17.3333 10.8075 17.3333 12.8333V14.6667H0V12.8333C0 10.8075 3.87833 9.16667 8.66667 9.16667Z" fill="#EA79BA"/>
</svg>
