<svg id="Group_44121" data-name="Group 44121" xmlns="http://www.w3.org/2000/svg" xmlns:xlink="http://www.w3.org/1999/xlink" width="238" height="198.711" viewBox="0 0 238 198.711">
  <defs>
    <clipPath id="clip-path">
      <rect id="Rectangle_22800" data-name="Rectangle 22800" width="238" height="198.711" fill="none"/>
    </clipPath>
    <clipPath id="clip-path-3">
      <rect id="Rectangle_22793" data-name="Rectangle 22793" width="55.03" height="3.177" fill="none"/>
    </clipPath>
    <clipPath id="clip-path-4">
      <rect id="Rectangle_22795" data-name="Rectangle 22795" width="15.95" height="25.188" fill="none"/>
    </clipPath>
    <clipPath id="clip-path-5">
      <rect id="Rectangle_22796" data-name="Rectangle 22796" width="4.527" height="6.782" fill="none"/>
    </clipPath>
  </defs>
  <g id="Group_44120" data-name="Group 44120" clip-path="url(#clip-path)">
    <g id="Group_44119" data-name="Group 44119">
      <g id="Group_44118" data-name="Group 44118" clip-path="url(#clip-path)">
        <path id="Path_104144" data-name="Path 104144" d="M237.326,102.982a67.961,67.961,0,0,1-2.353,17.965,62.126,62.126,0,0,1-2.614,7.6l-.007.014c-.775,1.846-1.649,3.664-2.621,5.467l-.007.014a64.944,64.944,0,0,1-9.356,13.069q-1.226,1.342-2.473,2.642c-.719.761-1.451,1.508-2.177,2.247q-4.132,4.185-8.384,7.961c-.7.627-1.4,1.24-2.114,1.846-.444.387-.888.761-1.339,1.141q-3.065,2.579-6.172,4.946-1.363,1.046-2.727,2.036-1.754,1.279-3.516,2.494-1.416.983-2.846,1.923a151.845,151.845,0,0,1-14.281,8.342q-4.534,2.336-9.11,4.3a140.682,140.682,0,0,1-69.22,11.1q-4.026-.37-7.961-1a126.34,126.34,0,0,1-36.473-11.4q-4.8-2.357-9.272-5.1a104.735,104.735,0,0,1-9.074-6.235c-.218-.162-.437-.331-.655-.5-25.06-19.515-38.523-48.767-30.034-81.3C6.1,78.908,11.765,69.883,18.592,63.465A60,60,0,0,1,35.028,52.792C42.362,49.417,50.084,47,57.481,44.006c9.412-3.826,18.289-8.588,25.152-17.465C105.072-2.5,163.6-9.982,193.525,15.543c20.565,17.536,43.829,53.164,43.8,87.439" transform="translate(0 0)" fill="#d2f9f9"/>
        <path id="Path_104145" data-name="Path 104145" d="M237.326,102.982a67.961,67.961,0,0,1-2.353,17.965,62.126,62.126,0,0,1-2.614,7.6l-.007.014c-.775,1.846-1.649,3.664-2.621,5.467l-.007.014a64.944,64.944,0,0,1-9.356,13.069q-1.226,1.342-2.473,2.642c-.719.761-1.451,1.508-2.177,2.247q-4.132,4.185-8.384,7.961c-.7.627-1.4,1.24-2.114,1.846-.444.387-.888.761-1.339,1.141q-3.065,2.579-6.172,4.946-1.363,1.046-2.727,2.036-1.754,1.279-3.516,2.494-1.416.983-2.846,1.923a151.845,151.845,0,0,1-14.281,8.342q-4.534,2.336-9.11,4.3a140.682,140.682,0,0,1-69.22,11.1q-4.026-.37-7.961-1a126.34,126.34,0,0,1-36.473-11.4q-4.8-2.357-9.272-5.1a104.735,104.735,0,0,1-9.074-6.235c-.218-.162-.437-.331-.655-.5-25.06-19.515-38.523-48.767-30.034-81.3C6.1,78.908,11.765,69.883,18.592,63.465A60,60,0,0,1,35.028,52.792C42.362,49.417,50.084,47,57.481,44.006c9.412-3.826,18.289-8.588,25.152-17.465C105.072-2.5,163.6-9.982,193.525,15.543c20.565,17.536,43.829,53.164,43.8,87.439" transform="translate(0 0)" fill="#d8e9f1"/>
        <path id="Path_104146" data-name="Path 104146" d="M201.7,263.626,200.04,243.9s-25.226,5.485-30.932,13.843a32.51,32.51,0,0,0-4.874,12.858,141.1,141.1,0,0,0,37.466-6.979" transform="translate(-48.527 -72.067)" fill="#282011"/>
        <path id="Path_104147" data-name="Path 104147" d="M247.644,242.716,220.9,239.175s-26.466,9.363-29.807,16.085c-1.412,2.843-2.271,7.572-2.8,12.086a143.436,143.436,0,0,0,32.57-9.686q4.576-1.966,9.11-4.3a151.842,151.842,0,0,0,14.281-8.342q1.427-.939,2.847-1.923c.179-.123.357-.256.538-.381" transform="translate(-55.638 -70.67)" fill="#038c88"/>
        <path id="Path_104148" data-name="Path 104148" d="M26.394,153.248a3.787,3.787,0,0,0,3.787,3.787h118.18a3.787,3.787,0,0,0,3.788-3.787V74.929H26.394Z" transform="translate(-7.799 -22.14)" fill="#fff"/>
        <path id="Path_104149" data-name="Path 104149" d="M148.362,62.458H30.182A3.787,3.787,0,0,0,26.4,66.246v5H152.149v-5a3.787,3.787,0,0,0-3.787-3.788" transform="translate(-7.799 -18.455)" fill="#ef5a62"/>
        <path id="Path_104150" data-name="Path 104150" d="M56.439,103.99h-4.57a2.4,2.4,0,0,1-2.4-2.4v-4.57a2.4,2.4,0,0,1,2.4-2.4h4.57a2.4,2.4,0,0,1,2.4,2.4v4.57a2.4,2.4,0,0,1-2.4,2.4" transform="translate(-14.617 -27.958)" fill="#ef5a62"/>
        <path id="Path_104151" data-name="Path 104151" d="M76.28,103.99H71.71a2.4,2.4,0,0,1-2.4-2.4v-4.57a2.4,2.4,0,0,1,2.4-2.4h4.57a2.4,2.4,0,0,1,2.4,2.4v4.57a2.4,2.4,0,0,1-2.4,2.4" transform="translate(-20.479 -27.958)" fill="#038c88"/>
        <path id="Path_104152" data-name="Path 104152" d="M96.121,103.99h-4.57a2.4,2.4,0,0,1-2.4-2.4v-4.57a2.4,2.4,0,0,1,2.4-2.4h4.57a2.4,2.4,0,0,1,2.4,2.4v4.57a2.4,2.4,0,0,1-2.4,2.4" transform="translate(-26.342 -27.958)" fill="#038c88"/>
        <path id="Path_104153" data-name="Path 104153" d="M115.962,103.99h-4.57a2.4,2.4,0,0,1-2.4-2.4v-4.57a2.4,2.4,0,0,1,2.4-2.4h4.57a2.4,2.4,0,0,1,2.4,2.4v4.57a2.4,2.4,0,0,1-2.4,2.4" transform="translate(-32.204 -27.958)" fill="#038c88"/>
        <path id="Path_104154" data-name="Path 104154" d="M135.8,103.99h-4.57a2.4,2.4,0,0,1-2.4-2.4v-4.57a2.4,2.4,0,0,1,2.4-2.4h4.57a2.4,2.4,0,0,1,2.4,2.4v4.57a2.4,2.4,0,0,1-2.4,2.4" transform="translate(-38.067 -27.958)" fill="#038c88"/>
        <path id="Path_104155" data-name="Path 104155" d="M155.644,103.99h-4.57a2.4,2.4,0,0,1-2.4-2.4v-4.57a2.4,2.4,0,0,1,2.4-2.4h4.57a2.4,2.4,0,0,1,2.4,2.4v4.57a2.4,2.4,0,0,1-2.4,2.4" transform="translate(-43.929 -27.958)" fill="#038c88"/>
        <path id="Path_104156" data-name="Path 104156" d="M175.485,103.99h-4.57a2.4,2.4,0,0,1-2.4-2.4v-4.57a2.4,2.4,0,0,1,2.4-2.4h4.57a2.4,2.4,0,0,1,2.4,2.4v4.57a2.4,2.4,0,0,1-2.4,2.4" transform="translate(-49.792 -27.958)" fill="#038c88"/>
        <path id="Path_104157" data-name="Path 104157" d="M56.439,127.286h-4.57a2.4,2.4,0,0,1-2.4-2.4v-4.57a2.4,2.4,0,0,1,2.4-2.4h4.57a2.4,2.4,0,0,1,2.4,2.4v4.57a2.4,2.4,0,0,1-2.4,2.4" transform="translate(-14.617 -34.841)" fill="#ef5a62"/>
        <path id="Path_104158" data-name="Path 104158" d="M76.28,127.286H71.71a2.4,2.4,0,0,1-2.4-2.4v-4.57a2.4,2.4,0,0,1,2.4-2.4h4.57a2.4,2.4,0,0,1,2.4,2.4v4.57a2.4,2.4,0,0,1-2.4,2.4" transform="translate(-20.479 -34.841)" fill="#ef5a62"/>
        <rect id="Rectangle_22781" data-name="Rectangle 22781" width="9.369" height="9.369" rx="3.406" transform="translate(62.809 83.075)" fill="none" stroke="#038c88" stroke-width="0.682"/>
        <rect id="Rectangle_22782" data-name="Rectangle 22782" width="9.369" height="9.369" rx="3.406" transform="translate(76.788 83.075)" fill="none" stroke="#038c88" stroke-width="0.682"/>
        <rect id="Rectangle_22783" data-name="Rectangle 22783" width="9.369" height="9.369" rx="3.406" transform="translate(90.766 83.075)" fill="none" stroke="#038c88" stroke-width="0.682"/>
        <rect id="Rectangle_22784" data-name="Rectangle 22784" width="9.369" height="9.369" rx="3.406" transform="translate(104.745 83.075)" fill="none" stroke="#038c88" stroke-width="0.682"/>
        <path id="Path_104159" data-name="Path 104159" d="M175.485,127.286h-4.57a2.4,2.4,0,0,1-2.4-2.4v-4.57a2.4,2.4,0,0,1,2.4-2.4h4.57a2.4,2.4,0,0,1,2.4,2.4v4.57a2.4,2.4,0,0,1-2.4,2.4" transform="translate(-49.792 -34.841)" fill="#ef5a62"/>
        <path id="Path_104160" data-name="Path 104160" d="M56.439,150.582h-4.57a2.4,2.4,0,0,1-2.4-2.4v-4.57a2.4,2.4,0,0,1,2.4-2.4h4.57a2.4,2.4,0,0,1,2.4,2.4v4.57a2.4,2.4,0,0,1-2.4,2.4" transform="translate(-14.617 -41.725)" fill="#ef5a62"/>
        <rect id="Rectangle_22785" data-name="Rectangle 22785" width="9.369" height="9.369" rx="3.406" transform="translate(48.831 99.488)" fill="none" stroke="#038c88" stroke-width="0.682"/>
        <rect id="Rectangle_22786" data-name="Rectangle 22786" width="9.369" height="9.369" rx="3.406" transform="translate(62.809 99.488)" fill="none" stroke="#038c88" stroke-width="0.682"/>
        <path id="Path_104161" data-name="Path 104161" d="M115.962,150.582h-4.57a2.4,2.4,0,0,1-2.4-2.4v-4.57a2.4,2.4,0,0,1,2.4-2.4h4.57a2.4,2.4,0,0,1,2.4,2.4v4.57a2.4,2.4,0,0,1-2.4,2.4" transform="translate(-32.204 -41.725)" fill="#ef5a62"/>
        <rect id="Rectangle_22787" data-name="Rectangle 22787" width="9.369" height="9.369" rx="3.406" transform="translate(90.766 99.488)" fill="none" stroke="#038c88" stroke-width="0.682"/>
        <path id="Path_104162" data-name="Path 104162" d="M155.644,150.582h-4.57a2.4,2.4,0,0,1-2.4-2.4v-4.57a2.4,2.4,0,0,1,2.4-2.4h4.57a2.4,2.4,0,0,1,2.4,2.4v4.57a2.4,2.4,0,0,1-2.4,2.4" transform="translate(-43.929 -41.725)" fill="#ef5a62"/>
        <rect id="Rectangle_22788" data-name="Rectangle 22788" width="9.369" height="9.369" rx="3.406" transform="translate(118.723 99.488)" fill="none" stroke="#038c88" stroke-width="0.682"/>
        <path id="Path_104163" data-name="Path 104163" d="M56.439,173.878h-4.57a2.4,2.4,0,0,1-2.4-2.4v-4.57a2.4,2.4,0,0,1,2.4-2.4h4.57a2.4,2.4,0,0,1,2.4,2.4v4.57a2.4,2.4,0,0,1-2.4,2.4" transform="translate(-14.617 -48.608)" fill="#ef5a62"/>
        <rect id="Rectangle_22789" data-name="Rectangle 22789" width="9.369" height="9.369" rx="3.406" transform="translate(48.831 115.901)" fill="none" stroke="#038c88" stroke-width="0.682"/>
        <rect id="Rectangle_22790" data-name="Rectangle 22790" width="9.369" height="9.369" rx="3.406" transform="translate(62.809 115.901)" fill="none" stroke="#038c88" stroke-width="0.682"/>
        <path id="Path_104164" data-name="Path 104164" d="M115.962,173.878h-4.57a2.4,2.4,0,0,1-2.4-2.4v-4.57a2.4,2.4,0,0,1,2.4-2.4h4.57a2.4,2.4,0,0,1,2.4,2.4v4.57a2.4,2.4,0,0,1-2.4,2.4" transform="translate(-32.204 -48.608)" fill="#ef5a62"/>
        <path id="Path_104165" data-name="Path 104165" d="M135.8,173.878h-4.57a2.4,2.4,0,0,1-2.4-2.4v-4.57a2.4,2.4,0,0,1,2.4-2.4h4.57a2.4,2.4,0,0,1,2.4,2.4v4.57a2.4,2.4,0,0,1-2.4,2.4" transform="translate(-38.067 -48.608)" fill="#ef5a62"/>
        <rect id="Rectangle_22791" data-name="Rectangle 22791" width="9.369" height="9.369" rx="3.406" transform="translate(104.745 115.901)" fill="none" stroke="#038c88" stroke-width="0.682"/>
        <rect id="Rectangle_22792" data-name="Rectangle 22792" width="9.369" height="9.369" rx="3.406" transform="translate(118.723 115.901)" fill="none" stroke="#038c88" stroke-width="0.682"/>
        <path id="Path_104166" data-name="Path 104166" d="M179.019,69.014H176.7a.553.553,0,0,1,0-1.105h2.32a.553.553,0,1,1,0,1.105" transform="translate(-52.047 -20.065)" fill="#fff"/>
        <path id="Path_104167" data-name="Path 104167" d="M186.472,69.014h-2.32a.553.553,0,0,1,0-1.105h2.32a.553.553,0,1,1,0,1.105" transform="translate(-54.249 -20.065)" fill="#282011"/>
        <path id="Path_104168" data-name="Path 104168" d="M193.925,69.014h-2.32a.553.553,0,0,1,0-1.105h2.32a.553.553,0,1,1,0,1.105" transform="translate(-56.451 -20.065)" fill="#00d1d6"/>
        <path id="Path_104169" data-name="Path 104169" d="M73.132,117.54l3.509,5.2-1.323.19,5.571-9.8,3.957,3.106-8.7,8.623-5.359-4.043Z" transform="translate(-20.915 -33.427)" fill="#282011"/>
        <path id="Path_104170" data-name="Path 104170" d="M258.222,220.662l6.87-48.986H253.6l-6.871,48.986Z" transform="translate(-72.902 -50.726)" fill="#00d1d6"/>
        <path id="Path_104171" data-name="Path 104171" d="M287.485,220.662l6.87-48.986H282.864l-6.871,48.986Z" transform="translate(-81.549 -50.726)" fill="#038c88"/>
        <path id="Path_104172" data-name="Path 104172" d="M316.749,220.662l6.87-48.986H312.128l-6.871,48.986Z" transform="translate(-90.196 -50.726)" fill="#038c88"/>
        <path id="Path_104173" data-name="Path 104173" d="M255.583,220.662l6.87-48.986H250.962l-6.871,48.986Z" transform="translate(-72.123 -50.726)" fill="#fcfcfc"/>
        <path id="Path_104174" data-name="Path 104174" d="M284.847,220.662l6.87-48.986H280.225l-6.87,48.986Z" transform="translate(-80.769 -50.726)" fill="#fcfcfc"/>
        <path id="Path_104175" data-name="Path 104175" d="M314.11,220.662l6.87-48.986H309.489l-6.871,48.986Z" transform="translate(-89.416 -50.726)" fill="#fcfcfc"/>
        <path id="Path_104176" data-name="Path 104176" d="M309.126,163.423H249.019l2.76-19.679h56.708l3.091,2.188Z" transform="translate(-73.579 -42.473)" fill="#fcfcfc"/>
        <path id="Path_104177" data-name="Path 104177" d="M332.909,163.423h-3.4l2.76-19.679,3.091,2.188Z" transform="translate(-97.362 -42.473)" fill="#038c88"/>
        <g id="Group_44111" data-name="Group 44111" transform="translate(178.392 120.947)" opacity="0.5" style="mix-blend-mode: multiply;isolation: isolate">
          <g id="Group_44110" data-name="Group 44110">
            <g id="Group_44109" data-name="Group 44109" clip-path="url(#clip-path-3)">
              <path id="Path_104178" data-name="Path 104178" d="M253.653,171.672l-.444,3.177H266.56l.444-3.177Zm20.621,0-.444,3.177h13.344l.451-3.177Zm20.614,0-.444,3.177H307.8l.444-3.177Z" transform="translate(-253.209 -171.672)" fill="#038c88"/>
            </g>
          </g>
        </g>
        <path id="Path_104179" data-name="Path 104179" d="M158.432,177.448s18.031,3.673,29.916,6.96c10.871,3.006,7.506,15.047.18,14.724s-33.171-12.908-33.171-12.908Z" transform="translate(-45.904 -52.431)" fill="#f4b460"/>
        <path id="Path_104180" data-name="Path 104180" d="M209.672,147.023l-13.14,27.162s2.157,3.53,8.237,5.883l8.825-20.984Z" transform="translate(-58.07 -43.442)" fill="#038c88"/>
        <path id="Path_104181" data-name="Path 104181" d="M257.181,211.517c-1.278-10.845-3.742-33.5-3.007-41.153.981-10.2-7.256-25.5-7.256-25.5l-22.75-3.922s-6.079-1.667-13.336,4.217c-6.193,5.022-9.529,52.539-10.373,66.354Z" transform="translate(-59.231 -41.582)" fill="#00d1d6"/>
        <rect id="Rectangle_22794" data-name="Rectangle 22794" width="15.951" height="26.541" transform="translate(166.161 77.531)" fill="#f4b460"/>
        <g id="Group_44114" data-name="Group 44114" transform="translate(166.162 77.531)" style="mix-blend-mode: multiply;isolation: isolate">
          <g id="Group_44113" data-name="Group 44113">
            <g id="Group_44112" data-name="Group 44112" clip-path="url(#clip-path-4)">
              <path id="Path_104182" data-name="Path 104182" d="M235.849,135.191q.616.043,1.243.044a17.633,17.633,0,0,0,14.708-7.892v-17.3H235.849Z" transform="translate(-235.849 -110.047)" fill="#f4b460"/>
            </g>
          </g>
        </g>
        <path id="Path_104183" data-name="Path 104183" d="M226.035,117.45h0a17.65,17.65,0,0,1-17.65-17.65V86.034a17.65,17.65,0,0,1,35.3,0V99.8a17.65,17.65,0,0,1-17.65,17.65" transform="translate(-61.572 -20.206)" fill="#f4b460"/>
        <path id="Path_104184" data-name="Path 104184" d="M213.851,108.291a1.422,1.422,0,1,1-1.422-1.422,1.422,1.422,0,0,1,1.422,1.422" transform="translate(-62.347 -31.577)" fill="#282011"/>
        <path id="Path_104185" data-name="Path 104185" d="M223.246,108.291a1.422,1.422,0,1,1-1.422-1.422,1.422,1.422,0,0,1,1.422,1.422" transform="translate(-65.123 -31.577)" fill="#282011"/>
        <path id="Path_104186" data-name="Path 104186" d="M213.358,102.741c0,.488-1.383.883-3.089.883s-3.089-.4-3.089-.883,1.383-.883,3.089-.883,3.089.4,3.089.883" transform="translate(-61.216 -30.096)" fill="#282011"/>
        <path id="Path_104187" data-name="Path 104187" d="M225.606,102.741c0,.488-1.383.883-3.089.883s-3.089-.4-3.089-.883,1.383-.883,3.089-.883,3.089.4,3.089.883" transform="translate(-64.835 -30.096)" fill="#282011"/>
        <path id="Path_104188" data-name="Path 104188" d="M211.312,78.935s.686,7.648,11.081,10.2l-1.766-4.9a19.124,19.124,0,0,0,6.93,7.714c4.609,2.648,4.347,6.112,4.347,6.112s1.406-5.72,5.067-4.543,1.5,9.348-2.615,8.89a9.926,9.926,0,0,0,7.257,6.537s2.836-14.09,3.007-18.893c.2-5.491-.458-12.878-6.21-15.362,0,0-4.184-7.976-14.937-8.4-10.116-.4-18.337,3.923-21.083,9.9a13.373,13.373,0,0,0,3.8,16.277V86.583s2.476-1.9,5.123-7.648" transform="translate(-59.415 -19.578)" fill="#282011"/>
        <path id="Path_104189" data-name="Path 104189" d="M240.422,102.252s2.811,6.341.261,11.375c0,0,4.315-4.576,4.249-10.655Z" transform="translate(-71.039 -30.213)" fill="#282011"/>
        <g id="Group_44117" data-name="Group 44117" transform="translate(173.978 75.26)" style="mix-blend-mode: multiply;isolation: isolate">
          <g id="Group_44116" data-name="Group 44116">
            <g id="Group_44115" data-name="Group 44115" clip-path="url(#clip-path-5)">
              <path id="Path_104190" data-name="Path 104190" d="M247.317,108.963s.621-2.353,2.419-2.125,1.994,2.288,1.5,3.171a2.525,2.525,0,0,0-1.143-2.059c-1.144-.654-2.027,2.026-2.027,2.026s1.373-1.144,1.961-.032-.948,2.059-1.765,1.536c0,0-.523.85.1,1.21s1.9-.883,1.9-.883-.817,1.83-2.125,1.8-1.471-2.386-.817-4.641" transform="translate(-246.944 -106.823)" fill="#f4b460"/>
            </g>
          </g>
        </g>
        <path id="Path_104191" data-name="Path 104191" d="M239.472,130.449l-9.711-4.021a1.555,1.555,0,0,1-.842-2.033l9.164-21.775a1.556,1.556,0,0,1,2.033-.843l9.71,4.021a1.555,1.555,0,0,1,.843,2.033L241.5,129.606a1.555,1.555,0,0,1-2.033.843" transform="translate(-67.605 -30.037)" fill="#fff"/>
        <path id="Path_104192" data-name="Path 104192" d="M250.01,139.646s10.394,2.942,13.728,8.041,6.275,13.924,1.961,21.573-19.611,18.3-33.535,18.7l5.295-41.642Z" transform="translate(-68.599 -41.262)" fill="#f4b460"/>
        <path id="Path_104193" data-name="Path 104193" d="M244.72,169.521a28.053,28.053,0,0,1-.756,16.829c-.051.143-.1.286-.159.429,0,0,8.5-1.83,15.036-6.537s10.459-8.89,11.9-16.081-2.746-17.781-6.015-19.611a120.692,120.692,0,0,0-11.668-4.9s-4.282,4.511-12.911,3.726Z" transform="translate(-70.956 -41.262)" fill="#00d1d6"/>
        <path id="Path_104194" data-name="Path 104194" d="M245.211,132.864h0a1.71,1.71,0,0,1-1.51-1.888l1.3-11.454a1.71,1.71,0,0,1,3.4.378l-1.3,11.454a1.71,1.71,0,0,1-1.888,1.511" transform="translate(-72.004 -34.866)" fill="#f4b460"/>
        <path id="Path_104195" data-name="Path 104195" d="M240.464,137.6h0a1.71,1.71,0,0,1-1.51-1.888l.411-3.606a1.71,1.71,0,0,1,3.4.378l-.411,3.605a1.71,1.71,0,0,1-1.888,1.51" transform="translate(-70.602 -38.585)" fill="#f4b460"/>
        <path id="Path_104196" data-name="Path 104196" d="M236.309,138.89h0A1.71,1.71,0,0,1,234.8,137l.411-3.606a1.71,1.71,0,0,1,3.4.378l-.411,3.605a1.71,1.71,0,0,1-1.888,1.51" transform="translate(-69.374 -38.966)" fill="#f4b460"/>
        <path id="Path_104197" data-name="Path 104197" d="M232.154,139.368h0a1.432,1.432,0,0,1-1.265-1.582l.344-3.019a1.432,1.432,0,0,1,2.846.316l-.344,3.019a1.432,1.432,0,0,1-1.581,1.265" transform="translate(-68.219 -39.444)" fill="#f4b460"/>
        <path id="Path_104198" data-name="Path 104198" d="M245.864,129.011l1.621,6.743-1.049,6.464-3.8,7.552-8.439-.128s-3.62-4.336-2.658-12.882l7.189-3.576,4.746.607a.756.756,0,0,0,.588-.467Z" transform="translate(-68.365 -38.119)" fill="#f4b460"/>
        <path id="Path_104199" data-name="Path 104199" d="M241.012,153.011s-2.034,18.289-4.236,30.422c-2.014,11.1-14.309,8.831-14.648,1.506s9.867-34.2,9.867-34.2Z" transform="translate(-65.631 -44.54)" fill="#f4b460"/>
        <path id="Path_104200" data-name="Path 104200" d="M247.752,170.194s1.83-2.615,4.315-5.752,4.184-10.852,10.721-11.9" transform="translate(-73.204 -45.073)" fill="none" stroke="#282011" stroke-width="0.557"/>
        <path id="Path_104201" data-name="Path 104201" d="M245.624,178.2a30.138,30.138,0,0,1-.1,10.394" transform="translate(-72.547 -52.654)" fill="none" stroke="#282011" stroke-width="0.557"/>
        <path id="Path_104202" data-name="Path 104202" d="M246.5,202.591a60.729,60.729,0,0,0,15.591-7.55" transform="translate(-72.834 -57.63)" fill="none" stroke="#282011" stroke-width="0.557"/>
        <path id="Path_104203" data-name="Path 104203" d="M143.972,181.878c2.409.151,2.781-.52,2.781-.52l2.7-8.413a13.578,13.578,0,0,0-1.989-4.175c-1.14-1.245-2.28-2.719-2.28-2.719a18.685,18.685,0,0,1-2.71-2.445c-.947-1.143-1.688-2.22-2.478-.515s1.8,4.413,1.8,4.413l-.166,1.534-12.677-4.81a1.1,1.1,0,0,0-.891,2l7.607,3.906-9.457-2.486a1.39,1.39,0,0,0-1.672.907,1.409,1.409,0,0,0-.063.3,1.391,1.391,0,0,0,.946,1.457l9.152,3.02-8.345-1.672a1.112,1.112,0,0,0-.545,2.154l8.513,2.608-6.5-.442a.991.991,0,0,0-.262,1.961l7.678,1.544s6.448,2.241,8.856,2.393" transform="translate(-36.777 -47.927)" fill="#f4b460"/>
        <path id="Path_104204" data-name="Path 104204" d="M215.634,115.15a1.354,1.354,0,0,0-.915,1.34,1.378,1.378,0,0,0,.981,1.34" transform="translate(-63.444 -34.024)" fill="none" stroke="#282011" stroke-width="0.557"/>
        <path id="Path_104205" data-name="Path 104205" d="M229.933,117.095c0,.922-1.339,1.668-2.991,1.668s-2.991-.746-2.991-1.668,1.339-1.667,2.991-1.667,2.991.747,2.991,1.667" transform="translate(-66.172 -34.106)" fill="#ef5a62"/>
        <path id="Path_104206" data-name="Path 104206" d="M208.516,115.543a17.462,17.462,0,0,0,.585,3.033c.9-.287,1.513-.826,1.513-1.447,0-.747-.884-1.374-2.1-1.586" transform="translate(-61.611 -34.14)" fill="#ef5a62"/>
        <path id="Path_104207" data-name="Path 104207" d="M257.248,159.9a9.547,9.547,0,0,1,4.537-8.012" transform="translate(-76.01 -44.879)" fill="none" stroke="#282011" stroke-width="0.557"/>
        <path id="Path_104208" data-name="Path 104208" d="M255.9,205.327s-8.881,20.851-29.346,22.782" transform="translate(-66.941 -60.669)" fill="none" stroke="#282011" stroke-width="0.557"/>
        <path id="Path_104209" data-name="Path 104209" d="M216.7,124.724a13.13,13.13,0,0,0,5.666-.984s-.656,2.81-2.482,3.184-3.184-2.2-3.184-2.2" transform="translate(-64.029 -36.562)" fill="#282011"/>
        <path id="Path_104210" data-name="Path 104210" d="M220.7,127.619a2.837,2.837,0,0,0,1.756-1.433,2.9,2.9,0,0,0-2.333.338,1.9,1.9,0,0,0-.654.924,1.926,1.926,0,0,0,1.231.17" transform="translate(-64.848 -37.257)" fill="#ef5a62"/>
        <rect id="Rectangle_22797" data-name="Rectangle 22797" width="193.951" height="11.4" transform="translate(32.574 162.949)" fill="#fcfcfc"/>
        <rect id="Rectangle_22798" data-name="Rectangle 22798" width="38.807" height="11.4" transform="translate(191.47 162.949)" fill="#038c88"/>
        <path id="Path_104211" data-name="Path 104211" d="M163.387,224.68H90.255a1.346,1.346,0,0,0-1.346,1.346v1.965a1.346,1.346,0,0,0,1.346,1.346h73.132a1.346,1.346,0,0,0,1.346-1.346v-1.965a1.346,1.346,0,0,0-1.346-1.346" transform="translate(-26.27 -66.387)" fill="#038c88"/>
        <path id="Path_104212" data-name="Path 104212" d="M136.978,170.475h-51.3a3.273,3.273,0,0,0-3.315,3.771l4.264,35.3a4.375,4.375,0,0,0,4.226,3.77h51.3a3.273,3.273,0,0,0,3.315-3.77l-4.264-35.3a4.376,4.376,0,0,0-4.226-3.771" transform="translate(-24.328 -50.371)" fill="#038c88"/>
        <path id="Path_104213" data-name="Path 104213" d="M133.338,170.475H82.026a3.272,3.272,0,0,0-3.315,3.771l4.264,35.3a4.375,4.375,0,0,0,4.226,3.77h51.311a3.272,3.272,0,0,0,3.315-3.77l-4.264-35.3a4.375,4.375,0,0,0-4.225-3.771" transform="translate(-23.249 -50.371)" fill="#00d1d6"/>
        <path id="Path_104214" data-name="Path 104214" d="M122.223,200.406a3.967,3.967,0,0,0-3.831-3.418,2.967,2.967,0,0,0-3,3.418,3.967,3.967,0,0,0,3.83,3.418,2.966,2.966,0,0,0,3-3.418" transform="translate(-34.087 -58.205)" fill="#d2f9f9"/>
        <path id="Path_104215" data-name="Path 104215" d="M193.88,185.234a16.467,16.467,0,0,1,4.951,1.485" transform="translate(-57.287 -54.732)" fill="none" stroke="#282011" stroke-width="0.557"/>
        <path id="Path_104216" data-name="Path 104216" d="M69.717,247.472,69.2,258.808q-4.8-2.357-9.272-5.1l-.282-6.235Z" transform="translate(-17.625 -73.122)" fill="#fcfcfc"/>
        <path id="Path_104217" data-name="Path 104217" d="M133.58,247.472l-1.071,23.735q-4.026-.37-7.961-1l-1.029-22.735Z" transform="translate(-36.497 -73.122)" fill="#00d1d6"/>
        <path id="Path_104218" data-name="Path 104218" d="M243.78,247.472l-.38,8.342q-4.534,2.336-9.11,4.3l-.571-12.639Z" transform="translate(-69.058 -73.122)" fill="#00d1d6"/>
      </g>
    </g>
  </g>
</svg>
