<svg width="61" height="57" viewBox="0 0 61 57" fill="none" xmlns="http://www.w3.org/2000/svg">
<path d="M28.1529 7.30312C28.2959 7.30312 28.4746 7.36992 28.6295 7.57031C27.9385 6.64629 29.4039 7.04707 29.4873 6.16758C30.3213 5.58867 30.0234 5.21016 30.2617 5.18789L30.5238 4.9875C30.0115 5.16563 29.8328 5.19902 29.6898 5.19902C29.6541 5.19902 29.6184 5.19902 29.5826 5.19902C29.5469 5.19902 29.4992 5.19902 29.4516 5.19902C29.2729 5.19902 28.975 5.23242 28.2721 5.43281C26.6637 5.54414 25.508 7.16953 24.96 7.21406C24.4 7.49238 24.4238 7.54805 24.5549 7.54805C24.5906 7.54805 24.6383 7.53691 24.6859 7.53691C24.7336 7.53691 24.7693 7.52578 24.8051 7.52578C24.9361 7.52578 24.9004 7.58145 24.1379 7.91543C24.3166 7.95996 22.8035 8.5834 22.7916 9.56309C22.7439 9.9416 22.9107 10.1977 23.1848 10.1977C23.423 10.1977 23.7209 10.0307 24.0426 9.60762C25.1148 8.44981 27.3785 8.33848 28.3555 7.63711C27.7479 7.59258 27.867 7.30312 28.1529 7.30312ZM22.7082 7.69277C22.601 7.69277 22.7439 7.57031 22.8988 7.44785C23.0656 7.32539 23.2563 7.20293 23.2563 7.20293C23.2563 7.20293 23.2563 7.20293 23.2443 7.21406C23.8877 6.98027 23.4945 6.92461 23.84 6.76875C23.8281 6.76875 23.8281 6.76875 23.8162 6.76875C23.7447 6.76875 23.8758 6.67969 23.9949 6.57949C24.1141 6.49043 24.2213 6.39023 24.1141 6.39023C24.0545 6.39023 23.8996 6.42363 23.6375 6.52383C23.7209 6.4125 24.0426 6.33457 24.4953 6.10078C23.84 6.30117 23.3277 6.42363 23.2682 6.42363C23.2205 6.42363 23.4945 6.33457 24.3166 6.10078C24.3523 6.10078 24.3881 6.11191 24.4119 6.11191C24.4953 6.11191 24.5311 6.08965 24.5191 6.06738C24.5072 6.04512 24.4596 6.03398 24.3762 6.03398C23.1967 6.12305 22.315 6.81328 22.5771 6.90234C22.732 6.85781 22.8393 6.83555 22.9107 6.83555C23.0656 6.83555 22.9941 6.95801 22.6844 7.13613C22.8273 7.44785 20.3016 8.24941 20.0156 8.53887C20.1586 8.46094 20.2539 8.43867 20.3016 8.43867C20.4922 8.43867 20.242 8.78379 19.9918 8.95078C20.1467 9.08438 20.2658 9.12891 20.3611 9.12891C20.6113 9.12891 20.7186 8.80605 20.933 8.70586C20.9807 8.79492 21.0283 8.83945 21.0879 8.83945C21.2904 8.83945 21.5406 8.37187 21.7432 8.12695C21.8027 8.18262 21.8742 8.22715 21.9695 8.22715C22.1602 8.22715 22.4461 8.08242 22.8988 7.67051C22.8035 7.68164 22.732 7.69277 22.7082 7.69277ZM19.968 9.74121C19.5391 9.98613 19.3127 10.0863 19.2174 10.0863C19.0387 10.0863 19.277 9.77461 19.4914 9.45176C19.7059 9.14004 19.8965 8.82832 19.6225 8.82832C19.4914 8.82832 19.2531 8.89512 18.8719 9.07324C17.8354 9.71895 16.084 11.5002 15.3096 11.5002C15.2857 11.5002 15.2619 11.5002 15.2381 11.5002C16.4891 10.643 16.1197 8.96191 17.8711 8.52773C19.5986 7.60371 20.7781 7.89316 22.315 6.83555C21.8623 7.04707 21.1951 7.28086 21.0402 7.28086C20.9449 7.28086 21.0879 7.16953 21.7074 6.89121C21.6479 6.90234 21.6002 6.91348 21.5645 6.91348C21.1475 6.91348 24.3047 5.85586 24.4596 5.83359C23.1609 6.00059 21.0641 7.01367 20.7781 7.01367C20.7424 7.01367 20.7424 7.00254 20.7424 6.98027C20.79 6.94688 20.79 6.92461 20.7424 6.92461C20.5875 6.92461 19.9441 7.125 19.2889 7.32539C18.6455 7.52578 17.9902 7.7373 17.8473 7.7373C17.7996 7.7373 17.7996 7.71504 17.8711 7.67051C12.2477 10.6541 7.55352 15.6861 6.08809 21.6533C6.6957 22.9559 6.27871 25.4385 7.27949 26.1621C8.42324 27.0639 6.30254 29.6801 6.8625 31.2943C7.43437 34.2111 9.90059 36.2039 10.1627 39.1875C10.6154 41.2359 12.2715 43.7408 12.9625 45.0434C13.4867 45.5332 14.9283 46.9471 15.1785 46.9471C15.2738 46.9471 15.2143 46.7355 14.833 46.1678C14.5947 45.5332 13.2127 43.8744 13.8799 43.8744C13.9156 43.8744 13.9514 43.8744 13.999 43.8855C13.177 43.1063 15.8219 43.3178 13.9752 42.2602C13.7607 42.0152 13.7131 41.9373 13.7607 41.9373C13.8203 41.9373 13.9871 42.0264 14.1777 42.1154C14.3803 42.2045 14.6186 42.2936 14.8092 42.2936C15.107 42.2936 15.3096 42.1043 15.1904 41.4141C15.2381 41.4363 15.2857 41.4363 15.3215 41.4363C15.6313 41.4363 15.524 40.8686 15.5479 40.3008C15.5717 39.733 15.7266 39.1652 16.5605 39.1652C16.6559 39.1652 16.7631 39.1764 16.8703 39.1875C18.8004 38.2078 17.1205 35.5025 19.3365 34.5117C19.2531 32.2629 16.0244 32.1516 14.8092 31.2387C14.6066 31.35 14.416 31.3834 14.2254 31.3834C14.0109 31.3834 13.8203 31.3389 13.6535 31.2832C13.4867 31.2387 13.3318 31.183 13.2246 31.183C13.2008 31.183 13.177 31.183 13.1531 31.1941C15.2262 30.682 13.7131 27.9879 11.9975 27.9879C11.9617 27.9879 11.9141 27.9879 11.8783 27.9879C11.7473 26.8189 11.1039 27.2643 11.0324 26.2957C10.9252 26.3514 10.818 26.3736 10.7107 26.3736C10.4248 26.3736 10.1627 26.1844 9.93633 26.0063C9.70996 25.817 9.51934 25.6389 9.35254 25.6389C9.22148 25.6389 9.10234 25.7613 8.99512 26.1176C9.11426 25.5721 9.07852 25.3939 8.95937 25.3939C8.84023 25.3939 8.62578 25.5832 8.3875 25.7725C8.16113 25.9617 7.89902 26.151 7.69648 26.151C7.67266 26.151 7.66074 26.151 7.63691 26.151C6.24297 25.227 7.64883 23.5904 6.91016 22.3324C7.38672 21.8537 7.57734 21.041 7.36289 21.041C7.25566 21.041 7.04121 21.2414 6.70762 21.7869C6.23105 20.6514 7.49395 18.0797 8.56621 17.935C8.60195 17.935 8.62578 17.9238 8.66152 17.9238C8.85215 17.9238 9.04277 18.0129 9.20957 18.2021C9.30488 18.7254 9.0666 19.8275 9.16191 19.8275C9.20957 19.8275 9.30488 19.6049 9.54316 19.026C9.85293 17.7012 12.0213 16.7438 12.2477 15.9311C12.2596 15.9422 12.2596 15.9422 12.2715 15.9422C12.5217 15.9422 14.1301 14.6174 14.833 14.4727C15.107 14.2166 15.2977 14.1275 15.4406 14.1275C15.5955 14.1275 15.6789 14.2389 15.7385 14.3391C15.798 14.4504 15.8457 14.5506 15.9053 14.5506C15.9529 14.5506 16.0125 14.4838 16.1197 14.2945C15.7504 13.6154 16.7035 12.9697 16.4414 12.9697C16.3461 12.9697 16.0602 13.0588 15.4764 13.2814C15.3811 13.326 15.3334 13.3371 15.3096 13.3371C15.2381 13.3371 15.524 13.159 15.941 12.9809C16.358 12.8027 16.8822 12.6246 17.323 12.6246C17.5375 12.6246 17.7281 12.6691 17.8711 12.7805C19.7178 12.3686 18.7051 11.8008 18.8004 11.8008C18.8004 11.8008 18.8123 11.8008 18.8242 11.8008C19.3484 11.5113 19.1936 10.4203 19.968 9.74121ZM11.7115 14.2945C11.6877 14.2945 11.7949 14.1498 12.1523 13.7379C12.891 13.2258 13.4867 12.8807 12.8076 12.5467C13.1055 12.4242 13.3914 12.2795 13.6654 12.1236C13.6535 12.6691 13.165 13.9939 12.9029 13.9939C12.8434 13.9939 12.7838 13.916 12.76 13.749C12.9148 13.493 12.9268 13.3928 12.8672 13.3928C12.7719 13.3928 12.4979 13.6154 12.2357 13.8492C11.9736 14.0607 11.7354 14.2945 11.7115 14.2945ZM12.3906 14.5951C12.0689 14.5951 12.1285 14.4059 13.1174 14.2166C13.5463 14.1609 13.2127 14.1832 13.725 14.0719C13.2246 14.4504 12.6646 14.5951 12.3906 14.5951ZM30.917 13.4707C31.06 13.4484 31.1672 13.4484 31.2506 13.4484C31.5961 13.4484 31.4412 13.582 31.2387 13.7156C31.0361 13.8492 30.7859 13.9828 30.9289 13.9828C31.0123 13.9828 31.2387 13.9383 31.7033 13.8158C34.0504 13.66 30.7859 11.8008 31.3102 11.1773L31.1672 11.1328C30.2021 12.2795 31.8105 12.3018 30.917 13.4707ZM29.94 13.5152C30.1068 13.5152 30.3213 13.3371 30.5477 12.8361C30.8574 12.491 30.7264 12.4465 30.3928 12.2795C29.4754 12.5021 29.5588 13.5152 29.94 13.5152ZM38.1607 17.0443C38.125 17.0443 38.1012 17.0555 38.0773 17.0666C38.1727 17.0889 38.268 17.1111 38.3633 17.1111C38.268 17.0666 38.2084 17.0443 38.1607 17.0443ZM54.1613 19.8164C54.3639 20.2283 54.4711 20.3953 54.483 20.3953C54.5664 20.3953 52.9818 16.7883 52.3266 16.1426C48.9072 10.8879 43.2838 6.86895 36.874 5.36602H36.8621C36.6953 5.36602 36.8859 5.44394 37.1123 5.52187C37.3387 5.5998 37.6127 5.67773 37.6127 5.67773C37.6127 5.67773 37.434 5.62207 36.8859 5.47734C36.2783 5.31035 35.6588 5.18789 35.0273 5.14336C34.9201 5.17676 37.6365 6.17871 39.4594 6.70195C38.8518 6.52383 38.2203 6.36797 38.0654 6.36797C37.9582 6.36797 38.0654 6.43477 38.5063 6.61289C37.9701 6.46816 37.7438 6.40137 37.7199 6.40137C37.6842 6.40137 38.4348 6.63516 39.1377 6.86895C39.8525 7.10273 40.5316 7.33652 40.341 7.33652C40.2934 7.33652 40.1623 7.31426 39.9598 7.28086C40.5674 7.59258 40.7818 7.71504 40.7461 7.71504C40.6865 7.71504 39.9359 7.38105 39.1615 7.04707C38.399 6.71309 37.6246 6.3791 37.5174 6.3791C37.4578 6.3791 37.6127 6.49043 38.1369 6.77988C38.8518 7.06934 39.5666 7.35879 39.3641 7.35879C39.2687 7.35879 38.9947 7.30313 38.4586 7.1584C39.65 7.72617 37.6127 7.50352 38.3037 8.27168C37.9225 7.9377 37.7676 7.82637 37.7318 7.82637C37.6961 7.82637 37.7914 7.95996 37.8867 8.09355C37.982 8.22715 38.0535 8.36074 37.9701 8.36074C37.9582 8.36074 37.9582 8.36074 37.9463 8.36074C38.7803 9.20684 37.3625 8.4498 38.3752 9.20684C37.6127 8.88398 36.3141 8.34961 36.8979 8.34961C37.0408 8.34961 37.3148 8.38301 37.7437 8.47207C36.9693 7.62598 34.7771 7.59258 34.7295 7.49238C34.1814 7.52578 34.1695 7.91543 34.2648 8.62793C34.2529 9.75234 33.0734 9.77461 33.2283 10.4203C33.2283 10.4092 33.2402 10.4092 33.2402 10.4092C33.2641 10.4092 33.276 10.6318 33.3475 10.8656C33.4309 11.0883 33.5738 11.3221 33.8836 11.3221C34.0504 11.3221 34.2648 11.2553 34.527 11.0883C34.8963 11.7117 35.2299 11.9344 35.492 11.9344C35.8852 11.9344 36.1234 11.4334 36.0996 10.977C35.6707 10.7543 35.1107 8.90625 35.7303 8.90625C35.8256 8.90625 35.9447 8.95078 36.0996 9.05098C35.1346 11.2664 39.9121 9.78574 37.2076 10.7988C37.8152 11.5447 36.8264 11.5113 37.1123 12.4131C36.6477 12.5355 36.1354 12.6469 35.6826 12.6469C35.0154 12.6469 34.5031 12.3797 34.5627 11.4445C33.7287 11.8564 35.3967 13.248 33.7406 13.248H33.6453C32.8471 14.6174 29.8566 14.1498 32.2037 15.5971C32.3348 16.2316 31.9059 16.343 31.3578 16.343C31.2148 16.343 31.06 16.3318 30.9051 16.3207C30.7502 16.3096 30.5953 16.3096 30.4523 16.3096C29.8328 16.3096 29.392 16.4543 29.7732 17.3561C29.4992 18.2912 30.1426 18.7031 30.9289 18.7031C31.882 18.7031 33.0496 18.1242 33.133 17.1668C33.6453 16.4432 34.3006 16.1426 34.9797 16.1426C36.052 16.1426 37.1838 16.8996 37.9225 17.8348C37.982 17.9238 38.0297 17.9572 38.0535 17.9572C38.1131 17.9572 38.0535 17.7346 38.0297 17.5119C38.0059 17.3338 38.0059 17.1557 38.0773 17.1C37.017 16.8217 36.2068 15.6193 36.5643 15.6193C36.6834 15.6193 36.9336 15.7529 37.3387 16.1092C37.3625 16.1092 37.3863 16.1092 37.3982 16.1092C38.0654 16.1092 38.5896 16.599 38.9947 17.0889C39.4117 17.5787 39.7215 18.0686 39.9955 18.0686C40.1027 18.0686 40.21 17.9795 40.3053 17.7791C40.2576 17.7123 40.1385 17.523 40.0789 17.3338C40.0074 17.1 40.0074 16.8662 40.3291 16.8662C40.4602 16.8662 40.6389 16.9107 40.8891 16.9998C41.6992 16.7994 40.3768 14.8289 41.449 14.8289C41.5562 14.8289 41.6873 14.8512 41.8541 14.8957C41.8422 15.2408 42.009 15.3633 42.1639 15.3633C42.4736 15.3633 42.7834 14.9514 42.0328 14.8289C42.3187 14.5729 42.4855 14.4727 42.6047 14.4727C43.0217 14.4727 42.6881 15.7641 44.1297 15.7641C44.6182 16.8439 39.8883 15.842 41.4014 17.9127C41.7469 18.1465 42.1758 18.191 42.5928 18.191C42.7238 18.191 42.843 18.191 42.9621 18.1799C43.0812 18.1799 43.2004 18.1687 43.3076 18.1687C44.0463 18.1687 44.5705 18.3357 44.2488 19.7607C43.8557 20.0279 43.4148 20.117 42.9621 20.117C42.557 20.117 42.152 20.0502 41.7588 19.9834C41.3656 19.9166 40.9844 19.8498 40.6389 19.8498C40.1027 19.8498 39.6738 20.0168 39.4117 20.5957C38.0178 20.0613 36.183 20.0391 36.3617 18.4248C33.9313 18.7477 31.3936 18.5807 29.6064 19.9723C29.4992 22.0096 25.7582 22.6664 26.6637 24.982C25.5795 27.1195 27.9742 30.1143 30.4166 30.1143C30.5 30.1143 30.5953 30.1143 30.6787 30.1031C32.0131 30.092 33.3594 29.5354 34.5389 29.5354C35.1465 29.5354 35.6945 29.6801 36.1711 30.1254C36.2783 30.1143 36.3736 30.1031 36.457 30.1031C38.2799 30.1031 35.8732 32.8084 38.0535 33.2648C40.0312 35.1797 36.8383 37.1502 38.399 38.9871C38.5658 40.4232 39.3283 41.6256 39.3283 43.0283C39.5309 43.0506 39.7215 43.0617 39.924 43.0617C42.4379 43.0617 44.0105 41.0133 45.4879 39.4658C45.0352 37.1502 49.0025 36.6937 47.6443 34.0998C47.0129 31.2609 50.6348 29.5799 50.4322 26.741C50.468 26.3402 50.3488 26.2178 50.1701 26.2178C49.9914 26.2178 49.7293 26.3402 49.4791 26.4516C49.217 26.574 48.9311 26.6854 48.7047 26.6854C48.4068 26.6854 48.1805 26.4961 48.1566 25.8727C46.4053 24.3475 45.607 22.2768 43.9748 20.5957C46.0955 21.5531 47.2988 23.7129 48.2758 25.6723C48.3592 25.6945 48.4426 25.7057 48.5379 25.7057C50.2654 25.7057 52.6721 21.8426 50.051 20.9074C49.908 21.2748 49.7174 21.4084 49.491 21.4084C49.0979 21.4084 48.6451 20.9631 48.3234 20.5289C48.0018 20.0836 47.835 19.6383 48.0137 19.6383C48.1328 19.6383 48.3949 19.8164 48.8477 20.284C49.36 20.5846 49.8604 20.6625 50.3846 20.6625C50.8969 20.6625 51.4211 20.5846 51.9691 20.54C52.6602 20.7961 52.958 21.6199 53.1725 21.6199C53.2082 21.6199 53.2559 21.5865 53.2916 21.5086C53.8396 22.7332 54.4711 24.9152 55.043 25.5053C54.7451 23.635 54.6736 21.6533 54.1613 19.8164ZM47.5133 17.2447C46.167 16.9219 45.7262 15.3633 44.6658 14.4615C44.6539 14.2166 45.0471 14.2611 44.9518 13.8492C46.3814 14.2611 45.9168 14.673 45.7857 14.751C46.31 15.5637 47.7754 16.1203 47.5133 17.2447ZM29.0107 8.77266C27.7121 9.12891 27.5334 8.73926 27.7598 9.48516C27.8551 9.55195 28.0338 9.57422 28.2125 9.57422C28.8439 9.58535 29.7018 9.24023 29.0107 8.77266ZM48.0852 39.4436C49.7889 38.0965 50.0033 36.4934 50.0867 34.868C49.3242 36.2596 47.0605 37.7959 48.0852 39.4436ZM40.3291 17.7346C40.3172 17.7457 40.3172 17.7457 40.3172 17.7568C40.3291 17.7791 40.341 17.7791 40.341 17.7791C40.341 17.7791 40.341 17.768 40.3291 17.7346ZM30.5 0C13.6535 0 0 12.7582 0 28.5C0 44.2418 13.6535 57 30.5 57C47.3465 57 61 44.2418 61 28.5C61 12.7582 47.3465 0 30.5 0ZM30.5 54.8068C14.9521 54.8068 2.34707 43.0283 2.34707 28.5C2.34707 13.9717 14.9521 2.19316 30.5 2.19316C46.0479 2.19316 58.6529 13.9717 58.6529 28.5C58.6529 43.0283 46.0479 54.8068 30.5 54.8068Z" fill="#AE8FF7"/>
</svg>
