<svg width="26" height="25" viewBox="0 0 26 25" fill="none" xmlns="http://www.w3.org/2000/svg">
<g clip-path="url(#clip0_202_48)">
<path d="M6.59311 24.9116C5.04701 24.844 4.20713 24.5966 3.6485 24.3871C2.90829 24.11 2.38056 23.7801 1.82502 23.2467C1.26948 22.7132 0.925646 22.2058 0.63899 21.4941C0.4211 20.9569 0.163804 20.1493 0.0934918 18.6627C0.0154532 17.055 0 16.5728 0 12.5015C0 8.43016 0.0169985 7.94799 0.0919465 6.33952C0.162259 4.8529 0.4211 4.04606 0.637444 3.50743C0.925646 2.79569 1.26948 2.28826 1.82348 1.75334C2.37825 1.21991 2.90597 0.888559 3.64695 0.612927C4.20559 0.403418 5.04547 0.156018 6.59156 0.0884101C8.26437 0.0148588 8.7666 0 13 0C17.2342 0 17.7356 0.0163447 19.4084 0.0884101C20.9545 0.156018 21.7929 0.404903 22.353 0.612927C23.0933 0.888559 23.621 1.21991 24.1765 1.75334C24.7321 2.28678 25.0744 2.79495 25.3626 3.50669C25.5804 4.04383 25.8377 4.85141 25.9081 6.33804C25.9845 7.94651 26 8.42793 26 12.5C26 16.5698 25.9845 17.0535 25.9081 18.662C25.8377 20.1486 25.5789 20.9562 25.3626 21.4933C25.0744 22.2051 24.7313 22.7125 24.1765 23.2459C23.6218 23.7793 23.0933 24.1092 22.353 24.3863C21.7944 24.5958 20.9545 24.8432 19.4084 24.9108C17.7372 24.9844 17.2349 24.9993 13 24.9993C8.7666 25 8.26437 24.9859 6.59311 24.9116Z" fill="url(#paint0_radial_202_48)"/>
<path d="M6.59311 24.9116C5.04701 24.844 4.20713 24.5966 3.6485 24.3871C2.90829 24.11 2.38056 23.7801 1.82502 23.2467C1.26948 22.7132 0.925646 22.2058 0.63899 21.4941C0.4211 20.9569 0.163804 20.1493 0.0934918 18.6627C0.0154532 17.055 0 16.5728 0 12.5015C0 8.43016 0.0169985 7.94799 0.0919465 6.33952C0.162259 4.8529 0.4211 4.04606 0.637444 3.50743C0.925646 2.79569 1.26948 2.28826 1.82348 1.75334C2.37825 1.21991 2.90597 0.888559 3.64695 0.612927C4.20559 0.403418 5.04547 0.156018 6.59156 0.0884101C8.26437 0.0148588 8.7666 0 13 0C17.2342 0 17.7356 0.0163447 19.4084 0.0884101C20.9545 0.156018 21.7929 0.404903 22.353 0.612927C23.0933 0.888559 23.621 1.21991 24.1765 1.75334C24.7321 2.28678 25.0744 2.79495 25.3626 3.50669C25.5804 4.04383 25.8377 4.85141 25.9081 6.33804C25.9845 7.94651 26 8.42793 26 12.5C26 16.5698 25.9845 17.0535 25.9081 18.662C25.8377 20.1486 25.5789 20.9562 25.3626 21.4933C25.0744 22.2051 24.7313 22.7125 24.1765 23.2459C23.6218 23.7793 23.0933 24.1092 22.353 24.3863C21.7944 24.5958 20.9545 24.8432 19.4084 24.9108C17.7372 24.9844 17.2349 24.9993 13 24.9993C8.7666 25 8.26437 24.9859 6.59311 24.9116Z" fill="url(#paint1_radial_202_48)"/>
<path d="M9.80808 12.5535C9.80808 10.844 11.2491 9.45765 13.027 9.45765C14.8049 9.45765 16.2467 10.844 16.2467 12.5535C16.2467 14.263 14.8049 15.6493 13.027 15.6493C11.2491 15.6493 9.80808 14.263 9.80808 12.5535ZM8.06728 12.5535C8.06728 15.1872 10.2879 17.3224 13.027 17.3224C15.7661 17.3224 17.9867 15.1872 17.9867 12.5535C17.9867 9.91976 15.7661 7.78455 13.027 7.78455C10.2879 7.78455 8.06728 9.91902 8.06728 12.5535ZM17.0239 7.5951C17.0239 8.21099 17.5424 8.70951 18.1829 8.71025C18.8235 8.71025 19.3419 8.21174 19.3427 7.59584C19.3435 6.97994 18.8242 6.48142 18.1837 6.48068H18.1829C17.5432 6.48142 17.0247 6.97994 17.0239 7.5951ZM9.12505 20.1129C8.18318 20.0713 7.67167 19.9205 7.33093 19.7935C6.8797 19.6248 6.55827 19.4235 6.21985 19.0988C5.88142 18.7741 5.67203 18.4651 5.49741 18.0312C5.36451 17.7043 5.20766 17.2117 5.16517 16.3061C5.11803 15.3269 5.10876 15.0327 5.10876 12.5527C5.10876 10.0728 5.11881 9.77935 5.16517 8.7994C5.20844 7.89376 5.36606 7.40267 5.49741 7.07429C5.6728 6.64041 5.88219 6.33135 6.21985 6.00594C6.5575 5.68053 6.87893 5.4792 7.33093 5.31129C7.6709 5.18351 8.18318 5.03269 9.12505 4.99183C10.1434 4.94651 10.4494 4.93759 13.027 4.93759C15.6046 4.93759 15.9113 4.94725 16.9305 4.99183C17.8723 5.03343 18.3831 5.18499 18.7246 5.31129C19.1758 5.4792 19.4972 5.68128 19.8357 6.00594C20.1741 6.33061 20.3827 6.64041 20.5581 7.07429C20.691 7.40119 20.8478 7.89376 20.8903 8.7994C20.9375 9.77935 20.9467 10.0728 20.9467 12.5527C20.9467 15.0327 20.9375 15.3262 20.8903 16.3061C20.8471 17.2117 20.6894 17.7036 20.5581 18.0312C20.3827 18.4651 20.1733 18.7741 19.8357 19.0988C19.498 19.4235 19.1758 19.6248 18.7246 19.7935C18.3846 19.9212 17.8723 20.0721 16.9305 20.1129C15.9121 20.1582 15.6061 20.1672 13.027 20.1672C10.4478 20.1672 10.1426 20.1582 9.12505 20.1129ZM9.04469 3.32169C8.01628 3.36701 7.31393 3.52377 6.70044 3.75334C6.06532 3.99034 5.52677 4.30832 4.98977 4.82466C4.45277 5.34101 4.1213 5.8581 3.87483 6.46954C3.63607 7.06018 3.47304 7.73551 3.42591 8.72362C3.378 9.71397 3.36719 10.0305 3.36719 12.5527C3.36719 15.075 3.378 15.3915 3.42591 16.3819C3.47304 17.3707 3.63607 18.0461 3.87483 18.636C4.1213 19.2467 4.45123 19.7652 4.989 20.2808C5.52677 20.7964 6.06454 21.1144 6.69967 21.3522C7.31471 21.5817 8.01628 21.7385 9.04392 21.7838C10.0746 21.8291 10.403 21.8403 13.0262 21.8403C15.6494 21.8403 15.9785 21.8299 17.0085 21.7838C18.0369 21.7385 18.7393 21.5817 19.3527 21.3522C19.9879 21.1144 20.5264 20.7972 21.0634 20.2808C21.6012 19.7645 21.9303 19.2459 22.1776 18.636C22.4163 18.0453 22.5801 17.37 22.6265 16.3819C22.6736 15.3908 22.6845 15.075 22.6845 12.5527C22.6845 10.0305 22.6736 9.71397 22.6265 8.72362C22.5794 7.73477 22.4163 7.05943 22.1776 6.46954C21.9303 5.85884 21.6004 5.34101 21.0634 4.82466C20.5264 4.30758 19.9871 3.99034 19.3535 3.75334C18.7385 3.52377 18.0361 3.36627 17.0093 3.32169C15.9793 3.27637 15.6502 3.26523 13.0278 3.26523C10.4053 3.26523 10.0754 3.27637 9.04469 3.32169Z" fill="white"/>
</g>
<defs>
<radialGradient id="paint0_radial_202_48" cx="0" cy="0" r="1" gradientUnits="userSpaceOnUse" gradientTransform="translate(1.68271 24.4523) scale(33.0107 31.7411)">
<stop offset="0.09" stop-color="#FA8F21"/>
<stop offset="0.78" stop-color="#D82D7E"/>
</radialGradient>
<radialGradient id="paint1_radial_202_48" cx="0" cy="0" r="1" gradientUnits="userSpaceOnUse" gradientTransform="translate(18.0095 23.6496) scale(29.0497 27.9324)">
<stop offset="0.64" stop-color="#8C3AAA" stop-opacity="0"/>
<stop offset="1" stop-color="#8C3AAA"/>
</radialGradient>
<clipPath id="clip0_202_48">
<rect width="26" height="25" fill="white"/>
</clipPath>
</defs>
</svg>
