<svg width="12" height="12" viewBox="0 0 12 12" fill="none" xmlns="http://www.w3.org/2000/svg">
<path d="M1.2 5.33333V10.6667H3.6V5.33333H1.2ZM4.8 1.33333V10.6667H7.2V1.33333H4.8ZM8.4 6.66667V10.6667H10.8V6.66667H8.4ZM10.8 12H1.2C0.87 12 0.5876 11.8696 0.3528 11.6087C0.1176 11.3473 0 11.0333 0 10.6667V5.33333C0 4.96667 0.1176 4.65267 0.3528 4.39133C0.5876 4.13044 0.87 4 1.2 4H3.6V1.33333C3.6 0.966667 3.7176 0.652667 3.9528 0.391333C4.1876 0.130444 4.47 0 4.8 0H7.2C7.53 0 7.8126 0.130444 8.0478 0.391333C8.2826 0.652667 8.4 0.966667 8.4 1.33333V5.33333H10.8C11.13 5.33333 11.4126 5.46378 11.6478 5.72467C11.8826 5.986 12 6.3 12 6.66667V10.6667C12 11.0333 11.8826 11.3473 11.6478 11.6087C11.4126 11.8696 11.13 12 10.8 12Z" fill="#87888C"/>
</svg>
