<svg width="13" height="10" viewBox="0 0 13 10" fill="none" xmlns="http://www.w3.org/2000/svg">
<path d="M12.6855 2.0493C12.4838 1.64828 12.1929 1.28487 11.8292 0.979431C11.4653 0.673079 11.0362 0.429625 10.5652 0.262308C10.0769 0.0881223 9.5531 -0.001036 9.0243 9.0821e-06C8.28243 9.0821e-06 7.55862 0.174444 6.92961 0.503933C6.77913 0.582752 6.63618 0.669324 6.50074 0.763648C6.36531 0.669324 6.22236 0.582752 6.07188 0.503933C5.44287 0.174444 4.71906 9.0821e-06 3.97719 9.0821e-06C3.44299 9.0821e-06 2.92533 0.0878729 2.43627 0.262308C1.96377 0.430283 1.53791 0.671908 1.17224 0.979431C0.808074 1.28453 0.517167 1.64802 0.316008 2.0493C0.106841 2.46665 0 2.90985 0 3.36597C0 3.79624 0.102327 4.2446 0.305475 4.70072C0.475517 5.08189 0.719295 5.47728 1.03079 5.87654C1.52436 6.50839 2.20303 7.16736 3.04572 7.83539C4.44218 8.94273 5.82509 9.70766 5.88378 9.73867L6.24041 9.93507C6.39842 10.0216 6.60157 10.0216 6.75957 9.93507L7.11621 9.73867C7.1749 9.70637 8.5563 8.94273 9.95426 7.83539C10.797 7.16736 11.4756 6.50839 11.9692 5.87654C12.2807 5.47728 12.526 5.08189 12.6945 4.70072C12.8977 4.2446 13 3.79624 13 3.36597C13.0015 2.90985 12.8946 2.46665 12.6855 2.0493Z" fill="#C8D4E0"/>
</svg>
