<svg id="Group_44101" data-name="Group 44101" xmlns="http://www.w3.org/2000/svg" xmlns:xlink="http://www.w3.org/1999/xlink" width="278.6" height="219.78" viewBox="0 0 278.6 219.78">
  <defs>
    <clipPath id="clip-path">
      <rect id="Rectangle_22779" data-name="Rectangle 22779" width="278.6" height="219.78" fill="#d8e9f1"/>
    </clipPath>
  </defs>
  <g id="Group_44096" data-name="Group 44096" clip-path="url(#clip-path)">
    <path id="Path_104138" data-name="Path 104138" d="M84.042,215.786C72.072,212.477,21.87,198.6,4.924,148.365,4.175,146.147-10.22,101.006,14,61.28c4.59-7.527,16.7-26.753,40.208-34.413,23.553-7.673,31.526,14.074,64.527,12.993,25.16-.825,46.479-13.068,49.935-15.1C187.407,13.751,190.833,4.077,206.935.883c17.583-3.488,32.271,4.326,36.317,6.672C267,21.328,273.556,49.4,276,59.876c11.623,49.785-19.214,93.686-24.319,100.78-35.015,48.653-90.628,54.808-115.759,57.589-14.57,1.612-31.123,3.28-51.881-2.458" transform="translate(0 0)" fill="#d8e9f1"/>
  </g>
</svg>
