<svg width="12" height="12" viewBox="0 0 12 12" fill="none" xmlns="http://www.w3.org/2000/svg">
<path d="M3.36842 9.88409L3.80437 10.1174C4.47943 10.4783 5.23329 10.6665 5.99876 10.6653H6.00076C6.92362 10.6653 7.82576 10.3917 8.59309 9.87895C9.36042 9.36623 9.95849 8.63749 10.3117 7.78488C10.6648 6.93226 10.7572 5.99407 10.5772 5.08894C10.3971 4.18381 9.95273 3.35239 9.30017 2.69983C8.64761 2.04727 7.81619 1.60286 6.91106 1.42282C6.00593 1.24278 5.06774 1.33519 4.21512 1.68835C3.36251 2.04151 2.63377 2.63958 2.12105 3.40691C1.60834 4.17424 1.33468 5.07638 1.33468 5.99924V6.00124C1.3335 6.76671 1.52173 7.52057 1.88261 8.19563L2.11591 8.63158L1.75729 10.2427L3.36842 9.88409V9.88409ZM0.00151179 11.9985L0.706756 8.82422C0.218782 7.91002 -0.0240634 6.88501 0.00188082 5.84905C0.027825 4.81309 0.321674 3.80152 0.854798 2.91289C1.38792 2.02426 2.14214 1.28888 3.04397 0.778396C3.94579 0.267914 4.96447 -0.000260885 6.00076 1.90441e-07C7.59185 1.90441e-07 9.11779 0.632061 10.2429 1.75714C11.3679 2.88221 12 4.40815 12 5.99924C12.0003 7.03553 11.7321 8.05421 11.2216 8.95603C10.7111 9.85786 9.97574 10.6121 9.08711 11.1452C8.19848 11.6783 7.18691 11.9722 6.15095 11.9981C5.11499 12.0241 4.08998 11.7812 3.17578 11.2932L0.00151179 11.9985Z" fill="#87888C"/>
</svg>
