<svg width="12" height="12" viewBox="0 0 12 12" fill="none" xmlns="http://www.w3.org/2000/svg">
<path d="M11.5265 8.50725H3.56081L3.96076 7.60134L10.6062 7.58795C10.8309 7.58795 11.0235 7.40945 11.0637 7.16251L11.9839 1.43399C12.008 1.28375 11.9719 1.12904 11.8836 1.01153C11.84 0.953693 11.7856 0.907106 11.7241 0.874997C11.6627 0.842889 11.5957 0.826029 11.5278 0.825586L3.07391 0.794347L3.00167 0.416512C2.95619 0.17553 2.7609 0 2.53885 0H0.472188C0.346956 0 0.226853 0.0553231 0.138301 0.153799C0.0497483 0.252275 0 0.385837 0 0.525102C0 0.664368 0.0497483 0.79793 0.138301 0.896406C0.226853 0.994881 0.346956 1.0502 0.472188 1.0502H2.15628L2.47197 2.71923L3.24914 6.90368L2.24858 8.71997C2.19662 8.79796 2.16532 8.89056 2.15823 8.98731C2.15114 9.08405 2.16853 9.18107 2.20845 9.26739C2.28871 9.4444 2.45056 9.55597 2.62981 9.55597H3.46985C3.29076 9.82049 3.19403 10.1427 3.19429 10.4738C3.19429 11.3157 3.80961 12 4.56672 12C5.32382 12 5.93914 11.3157 5.93914 10.4738C5.93914 10.1421 5.84015 9.81926 5.66358 9.55597H7.81853C7.63944 9.82049 7.54271 10.1427 7.54297 10.4738C7.54297 11.3157 8.15829 12 8.91539 12C9.6725 12 10.2878 11.3157 10.2878 10.4738C10.2878 10.1421 10.1888 9.81926 10.0123 9.55597H11.5278C11.7873 9.55597 12 9.32094 12 9.03087C11.9992 8.89175 11.949 8.75861 11.8603 8.66052C11.7716 8.56242 11.6516 8.50733 11.5265 8.50725ZM3.27054 1.82968L10.9727 1.85794L10.2183 6.5556L4.1681 6.5675L3.27054 1.82968ZM4.56672 10.9438C4.33397 10.9438 4.14402 10.7326 4.14402 10.4738C4.14402 10.2149 4.33397 10.0037 4.56672 10.0037C4.79947 10.0037 4.98941 10.2149 4.98941 10.4738C4.98941 10.5985 4.94488 10.718 4.86561 10.8062C4.78634 10.8943 4.67882 10.9438 4.56672 10.9438ZM8.91539 10.9438C8.68264 10.9438 8.4927 10.7326 8.4927 10.4738C8.4927 10.2149 8.68264 10.0037 8.91539 10.0037C9.14814 10.0037 9.33809 10.2149 9.33809 10.4738C9.33809 10.5985 9.29356 10.718 9.21428 10.8062C9.13501 10.8943 9.0275 10.9438 8.91539 10.9438Z" fill="#87888C"/>
</svg>
