<svg width="11" height="12" viewBox="0 0 11 12" fill="none" xmlns="http://www.w3.org/2000/svg">
<g clip-path="url(#clip0_202_441)">
<mask id="path-1-inside-1_202_441" fill="white">
<path fill-rule="evenodd" clip-rule="evenodd" d="M10.5416 6L0.458252 12V0L10.5416 6ZM0.916585 11.1575L9.58459 6L0.916585 0.8425V11.1575Z"/>
</mask>
<path fill-rule="evenodd" clip-rule="evenodd" d="M10.5416 6L0.458252 12V0L10.5416 6ZM0.916585 11.1575L9.58459 6L0.916585 0.8425V11.1575Z" fill="#C8D4E0"/>
<path d="M10.5416 6L11.0529 6.85937L12.4972 6L11.0529 5.14063L10.5416 6ZM0.458252 12H-0.541748V13.7587L0.969611 12.8594L0.458252 12ZM0.458252 0L0.969611 -0.859367L-0.541748 -1.75869V0H0.458252ZM0.916585 11.1575H-0.0834147V12.9161L1.42792 12.0169L0.916585 11.1575ZM9.58459 6L10.0959 6.85938L11.5402 6L10.0959 5.14062L9.58459 6ZM0.916585 0.8425L1.42792 -0.0168811L-0.0834147 -0.916133V0.8425H0.916585ZM10.0302 5.14063L-0.053107 11.1406L0.969611 12.8594L11.0529 6.85937L10.0302 5.14063ZM1.45825 12V0H-0.541748V12H1.45825ZM-0.053107 0.859367L10.0302 6.85937L11.0529 5.14063L0.969611 -0.859367L-0.053107 0.859367ZM1.42792 12.0169L10.0959 6.85938L9.07325 5.14062L0.40525 10.2981L1.42792 12.0169ZM10.0959 5.14062L1.42792 -0.0168811L0.40525 1.70188L9.07325 6.85938L10.0959 5.14062ZM-0.0834147 0.8425V11.1575H1.91659V0.8425H-0.0834147Z" fill="#C8D4E0" mask="url(#path-1-inside-1_202_441)"/>
<g clip-path="url(#clip1_202_441)">
<path fill-rule="evenodd" clip-rule="evenodd" d="M10.5416 6L0.458252 12V0L10.5416 6ZM0.916585 11.1575L9.58459 6L0.916585 0.8425V11.1575Z" fill="#C8D4E0"/>
</g>
</g>
<defs>
<clipPath id="clip0_202_441">
<rect width="11" height="12" fill="white"/>
</clipPath>
<clipPath id="clip1_202_441">
<rect width="11" height="12" fill="white"/>
</clipPath>
</defs>
</svg>
