<svg id="Group_44068" data-name="Group 44068" xmlns="http://www.w3.org/2000/svg" xmlns:xlink="http://www.w3.org/1999/xlink" width="27.592" height="19.407" viewBox="0 0 27.592 19.407">
  <defs>
    <clipPath id="clip-path">
      <rect id="Rectangle_22766" data-name="Rectangle 22766" width="27.592" height="19.407" fill="#fff"/>
    </clipPath>
  </defs>
  <g id="Group_44067" data-name="Group 44067" clip-path="url(#clip-path)">
    <path id="Path_104128" data-name="Path 104128" d="M0,20.439l.222-.685,8.336,8.262L.215,36.278,0,35.637v-15.2" transform="translate(0 -18.335)" fill="#fff"/>
    <path id="Path_104129" data-name="Path 104129" d="M273.445,36.2l-.224.686-8.335-8.262,8.35-8.263.209.642Z" transform="translate(-245.853 -18.894)" fill="#fff"/>
    <path id="Path_104130" data-name="Path 104130" d="M19.345.2c.337-.072.613-.136.891-.187A1.828,1.828,0,0,1,20.559,0Q31.752,0,42.946,0a2.528,2.528,0,0,1,1.171.233c-.073.079-.131.145-.192.207L32.513,11.889a.961.961,0,0,1-1.524,0L19.578.441C19.521.384,19.467.325,19.345.2" transform="translate(-17.955 0)" fill="#fff"/>
    <path id="Path_104131" data-name="Path 104131" d="M36.288,151.879l8.368,8.287c-.329.073-.6.138-.876.19a1.76,1.76,0,0,1-.323.008H21.048a2.447,2.447,0,0,1-1.165-.236l8.337-8.256c.023.021.094.084.162.151q.989.991,1.977,1.984a2.555,2.555,0,0,0,3.783,0c.725-.722,1.452-1.442,2.146-2.132" transform="translate(-18.454 -140.961)" fill="#fff"/>
  </g>
</svg>
