<svg width="27" height="27" viewBox="0 0 27 27" fill="none" xmlns="http://www.w3.org/2000/svg">
<g clip-path="url(#clip0_202_36)">
<path d="M27 0H0V27H27V0Z" fill="black"/>
<path d="M11.3596 11.1951V10.3719C11.0303 10.3171 10.7559 10.3171 10.4267 10.3171C6.80472 10.2622 3.84131 13.2256 3.84131 16.9024C3.84131 19.0976 4.99375 21.1829 6.64009 22.3354C5.48765 21.128 4.88399 19.5915 4.88399 17.8354C4.88399 14.2134 7.79253 11.25 11.3596 11.1951Z" fill="#25F4EE"/>
<path d="M11.5241 20.8537C13.1156 20.8537 14.4875 19.5366 14.5973 17.9451V3.45731H17.2863C17.2314 3.12804 17.2314 2.85365 17.2314 2.52438H13.6644V17.0122C13.6095 18.6037 12.2924 19.9207 10.5912 19.9207C10.0424 19.9207 9.60338 19.7561 9.21924 19.5366C9.60338 20.3049 10.5363 20.8537 11.5241 20.8537Z" fill="#25F4EE"/>
<path d="M22.1155 8.34146V7.57317C21.1277 7.57317 20.1948 7.2439 19.3716 6.75C20.0301 7.57317 21.0179 8.12195 22.1155 8.34146Z" fill="#25F4EE"/>
<path d="M19.3719 6.74999C18.6036 5.81706 18.1646 4.7195 18.1646 3.45731H17.1768C17.4511 4.82926 18.2194 6.09145 19.3719 6.74999Z" fill="#FE2C55"/>
<path d="M10.4267 13.8293C8.72547 13.8293 7.35352 15.2012 7.35352 16.9024C7.35352 18.0549 8.01205 19.0976 8.94498 19.5915C8.56083 19.0427 8.34132 18.439 8.34132 17.8354C8.34132 16.1342 9.71327 14.7622 11.4145 14.7622C11.7438 14.7622 12.0181 14.8171 12.3474 14.9268V11.25C12.0181 11.1951 11.7438 11.1951 11.4145 11.1951C11.3596 11.1951 11.3596 11.1951 11.2499 11.1951V13.9939C11.0303 13.939 10.756 13.8293 10.4267 13.8293Z" fill="#FE2C55"/>
<path d="M22.1157 8.34146V11.1402C20.195 11.1402 18.5487 10.5366 17.067 9.54878V16.8476C17.067 20.5244 14.1036 23.4878 10.4267 23.4878C8.99989 23.4878 7.68282 23.0488 6.64014 22.2805C7.84745 23.5976 9.60355 24.4207 11.5243 24.4207C15.2011 24.4207 18.1645 21.4573 18.1645 17.7805V10.4817C19.5914 11.4695 21.2926 12.0732 23.2133 12.0732V8.5061C22.7743 8.5061 22.3901 8.45122 22.1157 8.34146Z" fill="#FE2C55"/>
<path d="M17.067 16.9024V9.54877C18.4938 10.5366 20.1951 11.1402 22.1158 11.1402V8.34145C21.0731 8.12194 20.0853 7.51828 19.3719 6.74999C18.2195 5.9817 17.4512 4.82926 17.1768 3.45731H14.4877V17.9451C14.4329 19.5366 13.1158 20.8536 11.4146 20.8536C10.4268 20.8536 9.49384 20.3049 8.99994 19.5366C8.01214 18.9878 7.40848 18 7.40848 16.8476C7.40848 15.1463 8.78043 13.7744 10.4816 13.7744C10.8109 13.7744 11.0853 13.8293 11.4146 13.939V11.1402C7.8475 11.1951 4.93896 14.2134 4.93896 17.7805C4.93896 19.5366 5.5975 21.128 6.69506 22.2805C7.73775 23.0488 9.05482 23.4878 10.4816 23.4878C14.1036 23.4878 17.067 20.5244 17.067 16.9024Z" fill="white"/>
</g>
<defs>
<clipPath id="clip0_202_36">
<rect width="27" height="27" fill="white"/>
</clipPath>
</defs>
</svg>
