<svg width="13" height="9" viewBox="0 0 13 9" fill="none" xmlns="http://www.w3.org/2000/svg">
<path d="M12.942 4.24494C12.8674 4.08647 11.0598 0.375 6.49985 0.375C1.93989 0.375 0.132285 4.08647 0.0577383 4.24494C-0.0192461 4.40873 -0.0192461 4.59144 0.0577383 4.75523C0.132285 4.91353 1.93989 8.625 6.49985 8.625C11.0598 8.625 12.8674 4.91353 12.942 4.75506C13.0189 4.59127 13.0189 4.40873 12.942 4.24494ZM6.49985 5.875C5.60244 5.875 4.87485 5.25934 4.87485 4.5C4.87485 3.74066 5.60244 3.125 6.49985 3.125C7.39725 3.125 8.12485 3.74066 8.12485 4.5C8.12485 5.25934 7.39725 5.875 6.49985 5.875Z" fill="#C8D4E0"/>
</svg>
