<svg width="30" height="21" viewBox="0 0 30 21" fill="none" xmlns="http://www.w3.org/2000/svg">
<g clip-path="url(#clip0_202_54)">
<path d="M19.9837 10.1938C17.2333 8.72868 14.5993 7.38194 11.9065 5.9754V14.3883C14.7397 12.8538 17.7253 11.4473 19.9945 10.1938H19.9837Z" fill="white"/>
<path d="M19.9837 10.1938C17.2333 8.72868 11.9065 5.9754 11.9065 5.9754L19.0081 10.7332C19.0081 10.7332 17.7145 11.4473 19.9837 10.1938Z" fill="#E8E0E0"/>
<path d="M12.4247 20.9737C6.71154 20.8684 4.76034 20.774 3.56034 20.5288C2.74914 20.3649 2.04354 20.0013 1.52634 19.4751C1.12674 19.0768 0.808743 18.468 0.562743 17.6236C0.351543 16.9203 0.268743 16.3355 0.151143 14.905C-0.0288568 11.6781 -0.0720568 9.04084 0.151143 6.0938C0.334743 4.4648 0.423543 2.5332 1.64394 1.40534C2.21994 0.877891 2.89074 0.538216 3.64314 0.39828C4.81794 0.175817 9.82675 0 15.0107 0C20.1839 0 25.2035 0.175817 26.3795 0.39828C27.3191 0.574097 28.2011 1.10155 28.7183 1.7809C29.8319 3.52591 29.8511 5.69672 29.9639 7.3939C30.0107 8.20242 30.0107 12.7952 29.9639 13.6037C29.7875 16.2864 29.6471 17.2361 29.2475 18.2192C29.0003 18.84 28.7891 19.1689 28.4243 19.5313C27.8519 20.091 27.1211 20.4618 26.3315 20.5969C21.3875 20.9689 17.1899 21.0502 12.4247 20.9737ZM19.9955 10.1938C17.2451 8.72867 14.6111 7.36997 11.9183 5.96344V14.3764C14.7515 12.8418 17.7383 11.4353 20.0063 10.1819L19.9955 10.1938Z" fill="#CD201F"/>
</g>
<defs>
<clipPath id="clip0_202_54">
<rect width="30" height="21" fill="white"/>
</clipPath>
</defs>
</svg>
